<svg xmlns="http://www.w3.org/2000/svg" viewBox="0 0 600 460" fill="none"><defs><pattern id="grid" width="30" height="30" patternUnits="userSpaceOnUse"><path d="M30 0H0v30" stroke="#314e40" opacity=".075"/></pattern></defs><path fill="#e8eee8" d="M0 0h600v460H0z"/><path fill="url(#grid)" d="M0 0h600v460H0z"/><g stroke="#314e40" stroke-width="1.6" stroke-linejoin="round" stroke-linecap="round"><path d="M175 250l117-55 142 49-105 60zM175 250v54l154 49 105-56v-53M329 304v49M250 234v-40l37-16 43 16v39M287 178v-62l30-8 23 12-28 10-25-14M312 130v24M220 305l-30 38M274 325l-2 34M365 331l39 1M392 285l39 18M226 230l51 17 68-31"/><ellipse cx="172" cy="345" rx="22" ry="30" transform="rotate(-15 172 345)"/><ellipse cx="268" cy="371" rx="22" ry="30" transform="rotate(-15 268 371)"/><ellipse cx="404" cy="348" rx="22" ry="30" transform="rotate(-15 404 348)"/><ellipse cx="444" cy="309" rx="22" ry="30" transform="rotate(-15 444 309)"/></g><g stroke="#314e40" opacity=".35"><path d="M95 90v305M87 100h16M87 385h16M140 422h328M150 414v16M458 414v16"/><path d="M300 56v25M288 68h24M507 260h25M519 248v24"/></g><g font-family="monospace" font-size="9" letter-spacing="1.5" fill="#314e40"><text x="30" y="36">GK / PROJECT 04</text><text x="570" y="36" text-anchor="end">ROBOTICS</text><text x="30" y="441" opacity=".7">CONCEPTUAL ILLUSTRATION</text></g><circle cx="546" cy="420" r="4" fill="#c75834"/></svg>